<?xml version="1.0" encoding="UTF-8" standalone="no"?>
<!DOCTYPE svg PUBLIC "-//W3C//DTD SVG 1.1//EN"
 "http://www.w3.org/Graphics/SVG/1.1/DTD/svg11.dtd">
<!-- Generated by graphviz version 2.47.0 (20210316.0004)
 -->
<!-- Title: dependencies Pages: 1 -->
<svg width="3698pt" height="284pt"
 viewBox="0.00 0.00 3698.00 284.00" xmlns="http://www.w3.org/2000/svg" xmlns:xlink="http://www.w3.org/1999/xlink">
<g id="graph0" class="graph" transform="scale(1 1) rotate(0) translate(4 280)">
<title>dependencies</title>
<polygon fill="white" stroke="transparent" points="-4,4 -4,-280 3694,-280 3694,4 -4,4"/>
<text text-anchor="start" x="1824.01" y="-42.4" font-family="Times-12" font-weight="bold" font-size="14.00">Legend</text>
<polygon fill="#ffffb3" stroke="transparent" points="1611,-10 1611,-30 1631,-30 1631,-10 1611,-10"/>
<text text-anchor="start" x="1634.63" y="-15.4" font-family="Times-12" font-size="14.00"> &#160;Declarations</text>
<polygon fill="#8dd3c7" stroke="transparent" points="1724,-10 1724,-30 1744,-30 1744,-10 1724,-10"/>
<text text-anchor="start" x="1747.73" y="-15.4" font-family="Times-12" font-size="14.00"> &#160;Module</text>
<polygon fill="#80b1d3" stroke="transparent" points="1810,-10 1810,-30 1830,-30 1830,-10 1810,-10"/>
<text text-anchor="start" x="1833.78" y="-15.4" font-family="Times-12" font-size="14.00"> &#160;Bootstrap</text>
<polygon fill="#fdb462" stroke="transparent" points="1907,-10 1907,-30 1927,-30 1927,-10 1907,-10"/>
<text text-anchor="start" x="1930.67" y="-15.4" font-family="Times-12" font-size="14.00"> &#160;Providers</text>
<polygon fill="#fb8072" stroke="transparent" points="2003,-10 2003,-30 2023,-30 2023,-10 2003,-10"/>
<text text-anchor="start" x="2026.73" y="-15.4" font-family="Times-12" font-size="14.00"> &#160;Exports</text>
<g id="clust1" class="cluster">
<title>cluster_AppModule</title>
<polygon fill="none" stroke="black" stroke-dasharray="1,5" points="8,-70 8,-268 3682,-268 3682,-70 8,-70"/>
</g>
<g id="clust2" class="cluster">
<title>cluster_AppModule_declarations</title>
<polygon fill="none" stroke="black" points="969,-78 969,-130 3674,-130 3674,-78 969,-78"/>
</g>
<g id="clust19" class="cluster">
<title>cluster_AppModule_imports</title>
<polygon fill="none" stroke="black" points="16,-78 16,-130 961,-130 961,-78 16,-78"/>
</g>
<g id="clust21" class="cluster">
<title>cluster_AppModule_bootstrap</title>
<polygon fill="none" stroke="black" points="1946,-208 1946,-260 2070,-260 2070,-208 1946,-208"/>
</g>
<!-- AppComponent -->
<g id="node1" class="node">
<title>AppComponent</title>
<polygon fill="#ffffb3" stroke="black" points="3665.94,-122 3560.06,-122 3560.06,-86 3665.94,-86 3665.94,-122"/>
<text text-anchor="middle" x="3613" y="-99.8" font-family="Times,serif" font-size="14.00">AppComponent</text>
</g>
<!-- AppModule -->
<g id="node17" class="node">
<title>AppModule</title>
<polygon fill="#8dd3c7" stroke="black" points="2049.66,-187 2046.66,-191 2025.66,-191 2022.66,-187 1966.34,-187 1966.34,-151 2049.66,-151 2049.66,-187"/>
<text text-anchor="middle" x="2008" y="-164.8" font-family="Times,serif" font-size="14.00">AppModule</text>
</g>
<!-- AppComponent&#45;&gt;AppModule -->
<g id="edge1" class="edge">
<title>AppComponent&#45;&gt;AppModule</title>
<path fill="none" stroke="black" d="M3613,-122.15C3613,-145.76 3613,-184 3613,-184 3613,-184 2059.7,-184 2059.7,-184"/>
<polygon fill="black" stroke="black" points="2059.7,-180.5 2049.7,-184 2059.7,-187.5 2059.7,-180.5"/>
</g>
<!-- CalanderComponent -->
<g id="node2" class="node">
<title>CalanderComponent</title>
<polygon fill="#ffffb3" stroke="black" points="3541.86,-122 3410.14,-122 3410.14,-86 3541.86,-86 3541.86,-122"/>
<text text-anchor="middle" x="3476" y="-99.8" font-family="Times,serif" font-size="14.00">CalanderComponent</text>
</g>
<!-- CalanderComponent&#45;&gt;AppModule -->
<g id="edge2" class="edge">
<title>CalanderComponent&#45;&gt;AppModule</title>
<path fill="none" stroke="black" d="M3476,-122.01C3476,-144.49 3476,-180 3476,-180 3476,-180 2059.96,-180 2059.96,-180"/>
<polygon fill="black" stroke="black" points="2059.96,-176.5 2049.96,-180 2059.96,-183.5 2059.96,-176.5"/>
</g>
<!-- ClassificationComponentComponent -->
<g id="node3" class="node">
<title>ClassificationComponentComponent</title>
<polygon fill="#ffffb3" stroke="black" points="3391.65,-122 3168.35,-122 3168.35,-86 3391.65,-86 3391.65,-122"/>
<text text-anchor="middle" x="3280" y="-99.8" font-family="Times,serif" font-size="14.00">ClassificationComponentComponent</text>
</g>
<!-- ClassificationComponentComponent&#45;&gt;AppModule -->
<g id="edge3" class="edge">
<title>ClassificationComponentComponent&#45;&gt;AppModule</title>
<path fill="none" stroke="black" d="M3280,-122.04C3280,-143.66 3280,-177 3280,-177 3280,-177 2059.96,-177 2059.96,-177"/>
<polygon fill="black" stroke="black" points="2059.96,-173.5 2049.96,-177 2059.96,-180.5 2059.96,-173.5"/>
</g>
<!-- EventComponentComponent -->
<g id="node4" class="node">
<title>EventComponentComponent</title>
<polygon fill="#ffffb3" stroke="black" points="3150.82,-122 2971.18,-122 2971.18,-86 3150.82,-86 3150.82,-122"/>
<text text-anchor="middle" x="3061" y="-99.8" font-family="Times,serif" font-size="14.00">EventComponentComponent</text>
</g>
<!-- EventComponentComponent&#45;&gt;AppModule -->
<g id="edge4" class="edge">
<title>EventComponentComponent&#45;&gt;AppModule</title>
<path fill="none" stroke="black" d="M3061,-122.13C3061,-142.57 3061,-173 3061,-173 3061,-173 2059.93,-173 2059.93,-173"/>
<polygon fill="black" stroke="black" points="2059.93,-169.5 2049.93,-173 2059.93,-176.5 2059.93,-169.5"/>
</g>
<!-- GroupCreateComponent -->
<g id="node5" class="node">
<title>GroupCreateComponent</title>
<polygon fill="#ffffb3" stroke="black" points="2953.63,-122 2800.37,-122 2800.37,-86 2953.63,-86 2953.63,-122"/>
<text text-anchor="middle" x="2877" y="-99.8" font-family="Times,serif" font-size="14.00">GroupCreateComponent</text>
</g>
<!-- GroupCreateComponent&#45;&gt;AppModule -->
<g id="edge5" class="edge">
<title>GroupCreateComponent&#45;&gt;AppModule</title>
<path fill="none" stroke="black" d="M2877,-122.11C2877,-141.34 2877,-169 2877,-169 2877,-169 2059.91,-169 2059.91,-169"/>
<polygon fill="black" stroke="black" points="2059.91,-165.5 2049.91,-169 2059.91,-172.5 2059.91,-165.5"/>
</g>
<!-- GroupDetailComponent -->
<g id="node6" class="node">
<title>GroupDetailComponent</title>
<polygon fill="#ffffb3" stroke="black" points="2782.81,-122 2631.19,-122 2631.19,-86 2782.81,-86 2782.81,-122"/>
<text text-anchor="middle" x="2707" y="-99.8" font-family="Times,serif" font-size="14.00">GroupDetailComponent</text>
</g>
<!-- GroupDetailComponent&#45;&gt;AppModule -->
<g id="edge6" class="edge">
<title>GroupDetailComponent&#45;&gt;AppModule</title>
<path fill="none" stroke="black" d="M2707,-122.27C2707,-140.56 2707,-166 2707,-166 2707,-166 2059.89,-166 2059.89,-166"/>
<polygon fill="black" stroke="black" points="2059.89,-162.5 2049.89,-166 2059.89,-169.5 2059.89,-162.5"/>
</g>
<!-- GroupListComponent -->
<g id="node7" class="node">
<title>GroupListComponent</title>
<polygon fill="#ffffb3" stroke="black" points="2613.38,-122 2474.62,-122 2474.62,-86 2613.38,-86 2613.38,-122"/>
<text text-anchor="middle" x="2544" y="-99.8" font-family="Times,serif" font-size="14.00">GroupListComponent</text>
</g>
<!-- GroupListComponent&#45;&gt;AppModule -->
<g id="edge7" class="edge">
<title>GroupListComponent&#45;&gt;AppModule</title>
<path fill="none" stroke="black" d="M2544,-122.03C2544,-139.06 2544,-162 2544,-162 2544,-162 2060.06,-162 2060.06,-162"/>
<polygon fill="black" stroke="black" points="2060.06,-158.5 2050.06,-162 2060.06,-165.5 2060.06,-158.5"/>
</g>
<!-- GroupPageComponent -->
<g id="node8" class="node">
<title>GroupPageComponent</title>
<polygon fill="#ffffb3" stroke="black" points="2456.31,-122 2311.69,-122 2311.69,-86 2456.31,-86 2456.31,-122"/>
<text text-anchor="middle" x="2384" y="-99.8" font-family="Times,serif" font-size="14.00">GroupPageComponent</text>
</g>
<!-- GroupPageComponent&#45;&gt;AppModule -->
<g id="edge8" class="edge">
<title>GroupPageComponent&#45;&gt;AppModule</title>
<path fill="none" stroke="black" d="M2384,-122.01C2384,-138.05 2384,-159 2384,-159 2384,-159 2059.68,-159 2059.68,-159"/>
<polygon fill="black" stroke="black" points="2059.68,-155.5 2049.68,-159 2059.68,-162.5 2059.68,-155.5"/>
</g>
<!-- GroupmemberPipePipe -->
<g id="node9" class="node">
<title>GroupmemberPipePipe</title>
<polygon fill="#ffffb3" stroke="black" points="2293.91,-122 2146.09,-122 2146.09,-86 2293.91,-86 2293.91,-122"/>
<text text-anchor="middle" x="2220" y="-99.8" font-family="Times,serif" font-size="14.00">GroupmemberPipePipe</text>
</g>
<!-- GroupmemberPipePipe&#45;&gt;AppModule -->
<g id="edge9" class="edge">
<title>GroupmemberPipePipe&#45;&gt;AppModule</title>
<path fill="none" stroke="black" d="M2220,-122.12C2220,-136.78 2220,-155 2220,-155 2220,-155 2059.88,-155 2059.88,-155"/>
<polygon fill="black" stroke="black" points="2059.88,-151.5 2049.88,-155 2059.88,-158.5 2059.88,-151.5"/>
</g>
<!-- GrouppipePipe -->
<g id="node10" class="node">
<title>GrouppipePipe</title>
<polygon fill="#ffffb3" stroke="black" points="2128.26,-122 2027.74,-122 2027.74,-86 2128.26,-86 2128.26,-122"/>
<text text-anchor="middle" x="2078" y="-99.8" font-family="Times,serif" font-size="14.00">GrouppipePipe</text>
</g>
<!-- GrouppipePipe&#45;&gt;AppModule -->
<g id="edge10" class="edge">
<title>GrouppipePipe&#45;&gt;AppModule</title>
<path fill="none" stroke="black" d="M2038.72,-122.11C2038.72,-122.11 2038.72,-140.99 2038.72,-140.99"/>
<polygon fill="black" stroke="black" points="2035.22,-140.99 2038.72,-150.99 2042.22,-140.99 2035.22,-140.99"/>
</g>
<!-- ListEventsComponent -->
<g id="node11" class="node">
<title>ListEventsComponent</title>
<polygon fill="#ffffb3" stroke="black" points="2009.71,-122 1868.29,-122 1868.29,-86 2009.71,-86 2009.71,-122"/>
<text text-anchor="middle" x="1939" y="-99.8" font-family="Times,serif" font-size="14.00">ListEventsComponent</text>
</g>
<!-- ListEventsComponent&#45;&gt;AppModule -->
<g id="edge11" class="edge">
<title>ListEventsComponent&#45;&gt;AppModule</title>
<path fill="none" stroke="black" d="M1987.89,-122.11C1987.89,-122.11 1987.89,-140.99 1987.89,-140.99"/>
<polygon fill="black" stroke="black" points="1984.39,-140.99 1987.89,-150.99 1991.39,-140.99 1984.39,-140.99"/>
</g>
<!-- LoginPageComponent -->
<g id="node12" class="node">
<title>LoginPageComponent</title>
<polygon fill="#ffffb3" stroke="black" points="1849.99,-122 1708.01,-122 1708.01,-86 1849.99,-86 1849.99,-122"/>
<text text-anchor="middle" x="1779" y="-99.8" font-family="Times,serif" font-size="14.00">LoginPageComponent</text>
</g>
<!-- LoginPageComponent&#45;&gt;AppModule -->
<g id="edge12" class="edge">
<title>LoginPageComponent&#45;&gt;AppModule</title>
<path fill="none" stroke="black" d="M1779,-122.12C1779,-136.78 1779,-155 1779,-155 1779,-155 1956.26,-155 1956.26,-155"/>
<polygon fill="black" stroke="black" points="1956.26,-158.5 1966.26,-155 1956.26,-151.5 1956.26,-158.5"/>
</g>
<!-- NavigationComponent -->
<g id="node13" class="node">
<title>NavigationComponent</title>
<polygon fill="#ffffb3" stroke="black" points="1689.54,-122 1546.46,-122 1546.46,-86 1689.54,-86 1689.54,-122"/>
<text text-anchor="middle" x="1618" y="-99.8" font-family="Times,serif" font-size="14.00">NavigationComponent</text>
</g>
<!-- NavigationComponent&#45;&gt;AppModule -->
<g id="edge13" class="edge">
<title>NavigationComponent&#45;&gt;AppModule</title>
<path fill="none" stroke="black" d="M1618,-122.01C1618,-138.05 1618,-159 1618,-159 1618,-159 1956.26,-159 1956.26,-159"/>
<polygon fill="black" stroke="black" points="1956.26,-162.5 1966.26,-159 1956.26,-155.5 1956.26,-162.5"/>
</g>
<!-- PersonalCalenderPageComponent -->
<g id="node14" class="node">
<title>PersonalCalenderPageComponent</title>
<polygon fill="#ffffb3" stroke="black" points="1528.78,-122 1321.22,-122 1321.22,-86 1528.78,-86 1528.78,-122"/>
<text text-anchor="middle" x="1425" y="-99.8" font-family="Times,serif" font-size="14.00">PersonalCalenderPageComponent</text>
</g>
<!-- PersonalCalenderPageComponent&#45;&gt;AppModule -->
<g id="edge14" class="edge">
<title>PersonalCalenderPageComponent&#45;&gt;AppModule</title>
<path fill="none" stroke="black" d="M1425,-122.03C1425,-139.06 1425,-162 1425,-162 1425,-162 1956.07,-162 1956.07,-162"/>
<polygon fill="black" stroke="black" points="1956.07,-165.5 1966.07,-162 1956.07,-158.5 1956.07,-165.5"/>
</g>
<!-- SearchPageComponent -->
<g id="node15" class="node">
<title>SearchPageComponent</title>
<polygon fill="#ffffb3" stroke="black" points="1303.13,-122 1156.87,-122 1156.87,-86 1303.13,-86 1303.13,-122"/>
<text text-anchor="middle" x="1230" y="-99.8" font-family="Times,serif" font-size="14.00">SearchPageComponent</text>
</g>
<!-- SearchPageComponent&#45;&gt;AppModule -->
<g id="edge15" class="edge">
<title>SearchPageComponent&#45;&gt;AppModule</title>
<path fill="none" stroke="black" d="M1230,-122.27C1230,-140.56 1230,-166 1230,-166 1230,-166 1956.17,-166 1956.17,-166"/>
<polygon fill="black" stroke="black" points="1956.17,-169.5 1966.17,-166 1956.17,-162.5 1956.17,-169.5"/>
</g>
<!-- WatchlistPageComponent -->
<g id="node16" class="node">
<title>WatchlistPageComponent</title>
<polygon fill="#ffffb3" stroke="black" points="1139.2,-122 976.8,-122 976.8,-86 1139.2,-86 1139.2,-122"/>
<text text-anchor="middle" x="1058" y="-99.8" font-family="Times,serif" font-size="14.00">WatchlistPageComponent</text>
</g>
<!-- WatchlistPageComponent&#45;&gt;AppModule -->
<g id="edge16" class="edge">
<title>WatchlistPageComponent&#45;&gt;AppModule</title>
<path fill="none" stroke="black" d="M1058,-122.11C1058,-141.34 1058,-169 1058,-169 1058,-169 1956.26,-169 1956.26,-169"/>
<polygon fill="black" stroke="black" points="1956.26,-172.5 1966.26,-169 1956.26,-165.5 1956.26,-172.5"/>
</g>
<!-- AppComponent  -->
<g id="node22" class="node">
<title>AppComponent </title>
<polygon fill="#80b1d3" stroke="black" points="2062.44,-252 1953.56,-252 1953.56,-216 2062.44,-216 2062.44,-252"/>
<text text-anchor="middle" x="2008" y="-229.8" font-family="Times,serif" font-size="14.00">AppComponent </text>
</g>
<!-- AppModule&#45;&gt;AppComponent  -->
<g id="edge21" class="edge">
<title>AppModule&#45;&gt;AppComponent </title>
<path fill="none" stroke="black" stroke-dasharray="1,5" d="M2008,-187.11C2008,-187.11 2008,-205.99 2008,-205.99"/>
<polygon fill="black" stroke="black" points="2004.5,-205.99 2008,-215.99 2011.5,-205.99 2004.5,-205.99"/>
</g>
<!-- AppRoutingModule -->
<g id="node18" class="node">
<title>AppRoutingModule</title>
<polygon fill="#8dd3c7" stroke="black" points="953.27,-122 950.27,-126 929.27,-126 926.27,-122 824.73,-122 824.73,-86 953.27,-86 953.27,-122"/>
<text text-anchor="middle" x="889" y="-99.8" font-family="Times,serif" font-size="14.00">AppRoutingModule</text>
</g>
<!-- AppRoutingModule&#45;&gt;AppModule -->
<g id="edge17" class="edge">
<title>AppRoutingModule&#45;&gt;AppModule</title>
<path fill="none" stroke="black" d="M889,-122.13C889,-142.57 889,-173 889,-173 889,-173 1956.18,-173 1956.18,-173"/>
<polygon fill="black" stroke="black" points="1956.18,-176.5 1966.18,-173 1956.18,-169.5 1956.18,-176.5"/>
</g>
<!-- provideAuth(() =&gt; getAuth()) -->
<g id="node19" class="node">
<title>provideAuth(() =&gt; getAuth())</title>
<polygon fill="#8dd3c7" stroke="black" points="806.12,-122 803.12,-126 782.12,-126 779.12,-122 623.88,-122 623.88,-86 806.12,-86 806.12,-122"/>
<text text-anchor="middle" x="715" y="-99.8" font-family="Times,serif" font-size="14.00">provideAuth(() =&gt; getAuth())</text>
</g>
<!-- provideAuth(() =&gt; getAuth())&#45;&gt;AppModule -->
<g id="edge18" class="edge">
<title>provideAuth(() =&gt; getAuth())&#45;&gt;AppModule</title>
<path fill="none" stroke="black" d="M715,-122.04C715,-143.66 715,-177 715,-177 715,-177 1956.08,-177 1956.08,-177"/>
<polygon fill="black" stroke="black" points="1956.08,-180.5 1966.08,-177 1956.08,-173.5 1956.08,-180.5"/>
</g>
<!-- provideFirebaseApp(() =&gt; initializeApp(firebaseConfig)) -->
<g id="node20" class="node">
<title>provideFirebaseApp(() =&gt; initializeApp(firebaseConfig))</title>
<polygon fill="#8dd3c7" stroke="black" points="605.83,-122 602.83,-126 581.83,-126 578.83,-122 268.17,-122 268.17,-86 605.83,-86 605.83,-122"/>
<text text-anchor="middle" x="437" y="-99.8" font-family="Times,serif" font-size="14.00">provideFirebaseApp(() =&gt; initializeApp(firebaseConfig))</text>
</g>
<!-- provideFirebaseApp(() =&gt; initializeApp(firebaseConfig))&#45;&gt;AppModule -->
<g id="edge19" class="edge">
<title>provideFirebaseApp(() =&gt; initializeApp(firebaseConfig))&#45;&gt;AppModule</title>
<path fill="none" stroke="black" d="M437,-122.01C437,-144.49 437,-180 437,-180 437,-180 1955.98,-180 1955.98,-180"/>
<polygon fill="black" stroke="black" points="1955.98,-183.5 1965.98,-180 1955.98,-176.5 1955.98,-183.5"/>
</g>
<!-- provideFirestore(() =&gt; getFirestore()) -->
<g id="node21" class="node">
<title>provideFirestore(() =&gt; getFirestore())</title>
<polygon fill="#8dd3c7" stroke="black" points="250.14,-122 247.14,-126 226.14,-126 223.14,-122 23.86,-122 23.86,-86 250.14,-86 250.14,-122"/>
<text text-anchor="middle" x="137" y="-99.8" font-family="Times,serif" font-size="14.00">provideFirestore(() =&gt; getFirestore())</text>
</g>
<!-- provideFirestore(() =&gt; getFirestore())&#45;&gt;AppModule -->
<g id="edge20" class="edge">
<title>provideFirestore(() =&gt; getFirestore())&#45;&gt;AppModule</title>
<path fill="none" stroke="black" d="M137,-122.15C137,-145.76 137,-184 137,-184 137,-184 1956.3,-184 1956.3,-184"/>
<polygon fill="black" stroke="black" points="1956.3,-187.5 1966.3,-184 1956.3,-180.5 1956.3,-187.5"/>
</g>
</g>
</svg>
