<?xml version="1.0" encoding="UTF-8" standalone="no"?>
<!DOCTYPE svg PUBLIC "-//W3C//DTD SVG 1.1//EN"
 "http://www.w3.org/Graphics/SVG/1.1/DTD/svg11.dtd">
<!-- Generated by graphviz version 2.47.0 (20210316.0004)
 -->
<!-- Title: dependencies Pages: 1 -->
<svg width="3700pt" height="284pt"
 viewBox="0.00 0.00 3700.00 284.00" xmlns="http://www.w3.org/2000/svg" xmlns:xlink="http://www.w3.org/1999/xlink">
<g id="graph0" class="graph" transform="scale(1 1) rotate(0) translate(4 280)">
<title>dependencies</title>
<polygon fill="white" stroke="transparent" points="-4,4 -4,-280 3696,-280 3696,4 -4,4"/>
<text text-anchor="start" x="1825.01" y="-42.4" font-family="Times-12" font-weight="bold" font-size="14.00">Legend</text>
<polygon fill="#ffffb3" stroke="transparent" points="1612,-10 1612,-30 1632,-30 1632,-10 1612,-10"/>
<text text-anchor="start" x="1635.63" y="-15.4" font-family="Times-12" font-size="14.00"> &#160;Declarations</text>
<polygon fill="#8dd3c7" stroke="transparent" points="1725,-10 1725,-30 1745,-30 1745,-10 1725,-10"/>
<text text-anchor="start" x="1748.73" y="-15.4" font-family="Times-12" font-size="14.00"> &#160;Module</text>
<polygon fill="#80b1d3" stroke="transparent" points="1811,-10 1811,-30 1831,-30 1831,-10 1811,-10"/>
<text text-anchor="start" x="1834.78" y="-15.4" font-family="Times-12" font-size="14.00"> &#160;Bootstrap</text>
<polygon fill="#fdb462" stroke="transparent" points="1908,-10 1908,-30 1928,-30 1928,-10 1908,-10"/>
<text text-anchor="start" x="1931.67" y="-15.4" font-family="Times-12" font-size="14.00"> &#160;Providers</text>
<polygon fill="#fb8072" stroke="transparent" points="2004,-10 2004,-30 2024,-30 2024,-10 2004,-10"/>
<text text-anchor="start" x="2027.73" y="-15.4" font-family="Times-12" font-size="14.00"> &#160;Exports</text>
<g id="clust1" class="cluster">
<title>cluster_AppModule</title>
<polygon fill="none" stroke="black" stroke-dasharray="1,5" points="8,-70 8,-268 3684,-268 3684,-70 8,-70"/>
</g>
<g id="clust2" class="cluster">
<title>cluster_AppModule_declarations</title>
<polygon fill="none" stroke="black" points="969,-78 969,-130 3676,-130 3676,-78 969,-78"/>
</g>
<g id="clust19" class="cluster">
<title>cluster_AppModule_imports</title>
<polygon fill="none" stroke="black" points="16,-78 16,-130 961,-130 961,-78 16,-78"/>
</g>
<g id="clust21" class="cluster">
<title>cluster_AppModule_bootstrap</title>
<polygon fill="none" stroke="black" points="1947,-208 1947,-260 2071,-260 2071,-208 1947,-208"/>
</g>
<!-- AppComponent -->
<g id="node1" class="node">
<title>AppComponent</title>
<polygon fill="#ffffb3" stroke="black" points="3667.94,-122 3562.06,-122 3562.06,-86 3667.94,-86 3667.94,-122"/>
<text text-anchor="middle" x="3615" y="-99.8" font-family="Times,serif" font-size="14.00">AppComponent</text>
</g>
<!-- AppModule -->
<g id="node17" class="node">
<title>AppModule</title>
<polygon fill="#8dd3c7" stroke="black" points="2050.66,-187 2047.66,-191 2026.66,-191 2023.66,-187 1967.34,-187 1967.34,-151 2050.66,-151 2050.66,-187"/>
<text text-anchor="middle" x="2009" y="-164.8" font-family="Times,serif" font-size="14.00">AppModule</text>
</g>
<!-- AppComponent&#45;&gt;AppModule -->
<g id="edge1" class="edge">
<title>AppComponent&#45;&gt;AppModule</title>
<path fill="none" stroke="black" d="M3615,-122.15C3615,-145.76 3615,-184 3615,-184 3615,-184 2060.72,-184 2060.72,-184"/>
<polygon fill="black" stroke="black" points="2060.72,-180.5 2050.72,-184 2060.72,-187.5 2060.72,-180.5"/>
</g>
<!-- CalanderComponent -->
<g id="node2" class="node">
<title>CalanderComponent</title>
<polygon fill="#ffffb3" stroke="black" points="3543.86,-122 3412.14,-122 3412.14,-86 3543.86,-86 3543.86,-122"/>
<text text-anchor="middle" x="3478" y="-99.8" font-family="Times,serif" font-size="14.00">CalanderComponent</text>
</g>
<!-- CalanderComponent&#45;&gt;AppModule -->
<g id="edge2" class="edge">
<title>CalanderComponent&#45;&gt;AppModule</title>
<path fill="none" stroke="black" d="M3478,-122.01C3478,-144.49 3478,-180 3478,-180 3478,-180 2060.99,-180 2060.99,-180"/>
<polygon fill="black" stroke="black" points="2060.99,-176.5 2050.99,-180 2060.99,-183.5 2060.99,-176.5"/>
</g>
<!-- ClassificationComponentComponent -->
<g id="node3" class="node">
<title>ClassificationComponentComponent</title>
<polygon fill="#ffffb3" stroke="black" points="3393.65,-122 3170.35,-122 3170.35,-86 3393.65,-86 3393.65,-122"/>
<text text-anchor="middle" x="3282" y="-99.8" font-family="Times,serif" font-size="14.00">ClassificationComponentComponent</text>
</g>
<!-- ClassificationComponentComponent&#45;&gt;AppModule -->
<g id="edge3" class="edge">
<title>ClassificationComponentComponent&#45;&gt;AppModule</title>
<path fill="none" stroke="black" d="M3282,-122.04C3282,-143.66 3282,-177 3282,-177 3282,-177 2060.99,-177 2060.99,-177"/>
<polygon fill="black" stroke="black" points="2060.99,-173.5 2050.99,-177 2060.99,-180.5 2060.99,-173.5"/>
</g>
<!-- EventComponentComponent -->
<g id="node4" class="node">
<title>EventComponentComponent</title>
<polygon fill="#ffffb3" stroke="black" points="3152.82,-122 2973.18,-122 2973.18,-86 3152.82,-86 3152.82,-122"/>
<text text-anchor="middle" x="3063" y="-99.8" font-family="Times,serif" font-size="14.00">EventComponentComponent</text>
</g>
<!-- EventComponentComponent&#45;&gt;AppModule -->
<g id="edge4" class="edge">
<title>EventComponentComponent&#45;&gt;AppModule</title>
<path fill="none" stroke="black" d="M3063,-122.13C3063,-142.57 3063,-173 3063,-173 3063,-173 2060.97,-173 2060.97,-173"/>
<polygon fill="black" stroke="black" points="2060.97,-169.5 2050.97,-173 2060.97,-176.5 2060.97,-169.5"/>
</g>
<!-- GroupCreateComponent -->
<g id="node5" class="node">
<title>GroupCreateComponent</title>
<polygon fill="#ffffb3" stroke="black" points="2955.63,-122 2802.37,-122 2802.37,-86 2955.63,-86 2955.63,-122"/>
<text text-anchor="middle" x="2879" y="-99.8" font-family="Times,serif" font-size="14.00">GroupCreateComponent</text>
</g>
<!-- GroupCreateComponent&#45;&gt;AppModule -->
<g id="edge5" class="edge">
<title>GroupCreateComponent&#45;&gt;AppModule</title>
<path fill="none" stroke="black" d="M2879,-122.11C2879,-141.34 2879,-169 2879,-169 2879,-169 2060.67,-169 2060.67,-169"/>
<polygon fill="black" stroke="black" points="2060.67,-165.5 2050.67,-169 2060.67,-172.5 2060.67,-165.5"/>
</g>
<!-- GroupDetailComponent -->
<g id="node6" class="node">
<title>GroupDetailComponent</title>
<polygon fill="#ffffb3" stroke="black" points="2784.81,-122 2633.19,-122 2633.19,-86 2784.81,-86 2784.81,-122"/>
<text text-anchor="middle" x="2709" y="-99.8" font-family="Times,serif" font-size="14.00">GroupDetailComponent</text>
</g>
<!-- GroupDetailComponent&#45;&gt;AppModule -->
<g id="edge6" class="edge">
<title>GroupDetailComponent&#45;&gt;AppModule</title>
<path fill="none" stroke="black" d="M2709,-122.27C2709,-140.56 2709,-166 2709,-166 2709,-166 2060.69,-166 2060.69,-166"/>
<polygon fill="black" stroke="black" points="2060.69,-162.5 2050.69,-166 2060.69,-169.5 2060.69,-162.5"/>
</g>
<!-- GroupListComponent -->
<g id="node7" class="node">
<title>GroupListComponent</title>
<polygon fill="#ffffb3" stroke="black" points="2615.38,-122 2476.62,-122 2476.62,-86 2615.38,-86 2615.38,-122"/>
<text text-anchor="middle" x="2546" y="-99.8" font-family="Times,serif" font-size="14.00">GroupListComponent</text>
</g>
<!-- GroupListComponent&#45;&gt;AppModule -->
<g id="edge7" class="edge">
<title>GroupListComponent&#45;&gt;AppModule</title>
<path fill="none" stroke="black" d="M2546,-122.03C2546,-139.06 2546,-162 2546,-162 2546,-162 2060.69,-162 2060.69,-162"/>
<polygon fill="black" stroke="black" points="2060.69,-158.5 2050.69,-162 2060.69,-165.5 2060.69,-158.5"/>
</g>
<!-- GroupPageComponent -->
<g id="node8" class="node">
<title>GroupPageComponent</title>
<polygon fill="#ffffb3" stroke="black" points="2458.31,-122 2313.69,-122 2313.69,-86 2458.31,-86 2458.31,-122"/>
<text text-anchor="middle" x="2386" y="-99.8" font-family="Times,serif" font-size="14.00">GroupPageComponent</text>
</g>
<!-- GroupPageComponent&#45;&gt;AppModule -->
<g id="edge8" class="edge">
<title>GroupPageComponent&#45;&gt;AppModule</title>
<path fill="none" stroke="black" d="M2386,-122.01C2386,-138.05 2386,-159 2386,-159 2386,-159 2060.79,-159 2060.79,-159"/>
<polygon fill="black" stroke="black" points="2060.79,-155.5 2050.79,-159 2060.79,-162.5 2060.79,-155.5"/>
</g>
<!-- GroupmemberPipePipe -->
<g id="node9" class="node">
<title>GroupmemberPipePipe</title>
<polygon fill="#ffffb3" stroke="black" points="2295.91,-122 2148.09,-122 2148.09,-86 2295.91,-86 2295.91,-122"/>
<text text-anchor="middle" x="2222" y="-99.8" font-family="Times,serif" font-size="14.00">GroupmemberPipePipe</text>
</g>
<!-- GroupmemberPipePipe&#45;&gt;AppModule -->
<g id="edge9" class="edge">
<title>GroupmemberPipePipe&#45;&gt;AppModule</title>
<path fill="none" stroke="black" d="M2222,-122.12C2222,-136.78 2222,-155 2222,-155 2222,-155 2060.83,-155 2060.83,-155"/>
<polygon fill="black" stroke="black" points="2060.83,-151.5 2050.83,-155 2060.83,-158.5 2060.83,-151.5"/>
</g>
<!-- InwatchlistPipe -->
<g id="node10" class="node">
<title>InwatchlistPipe</title>
<polygon fill="#ffffb3" stroke="black" points="2130.59,-122 2027.41,-122 2027.41,-86 2130.59,-86 2130.59,-122"/>
<text text-anchor="middle" x="2079" y="-99.8" font-family="Times,serif" font-size="14.00">InwatchlistPipe</text>
</g>
<!-- InwatchlistPipe&#45;&gt;AppModule -->
<g id="edge10" class="edge">
<title>InwatchlistPipe&#45;&gt;AppModule</title>
<path fill="none" stroke="black" d="M2039.14,-122.11C2039.14,-122.11 2039.14,-140.99 2039.14,-140.99"/>
<polygon fill="black" stroke="black" points="2035.64,-140.99 2039.14,-150.99 2042.64,-140.99 2035.64,-140.99"/>
</g>
<!-- ListEventsComponent -->
<g id="node11" class="node">
<title>ListEventsComponent</title>
<polygon fill="#ffffb3" stroke="black" points="2009.71,-122 1868.29,-122 1868.29,-86 2009.71,-86 2009.71,-122"/>
<text text-anchor="middle" x="1939" y="-99.8" font-family="Times,serif" font-size="14.00">ListEventsComponent</text>
</g>
<!-- ListEventsComponent&#45;&gt;AppModule -->
<g id="edge11" class="edge">
<title>ListEventsComponent&#45;&gt;AppModule</title>
<path fill="none" stroke="black" d="M1988.39,-122.11C1988.39,-122.11 1988.39,-140.99 1988.39,-140.99"/>
<polygon fill="black" stroke="black" points="1984.89,-140.99 1988.39,-150.99 1991.89,-140.99 1984.89,-140.99"/>
</g>
<!-- LoginPageComponent -->
<g id="node12" class="node">
<title>LoginPageComponent</title>
<polygon fill="#ffffb3" stroke="black" points="1849.99,-122 1708.01,-122 1708.01,-86 1849.99,-86 1849.99,-122"/>
<text text-anchor="middle" x="1779" y="-99.8" font-family="Times,serif" font-size="14.00">LoginPageComponent</text>
</g>
<!-- LoginPageComponent&#45;&gt;AppModule -->
<g id="edge12" class="edge">
<title>LoginPageComponent&#45;&gt;AppModule</title>
<path fill="none" stroke="black" d="M1779,-122.12C1779,-136.78 1779,-155 1779,-155 1779,-155 1957.08,-155 1957.08,-155"/>
<polygon fill="black" stroke="black" points="1957.08,-158.5 1967.08,-155 1957.08,-151.5 1957.08,-158.5"/>
</g>
<!-- NavigationComponent -->
<g id="node13" class="node">
<title>NavigationComponent</title>
<polygon fill="#ffffb3" stroke="black" points="1689.54,-122 1546.46,-122 1546.46,-86 1689.54,-86 1689.54,-122"/>
<text text-anchor="middle" x="1618" y="-99.8" font-family="Times,serif" font-size="14.00">NavigationComponent</text>
</g>
<!-- NavigationComponent&#45;&gt;AppModule -->
<g id="edge13" class="edge">
<title>NavigationComponent&#45;&gt;AppModule</title>
<path fill="none" stroke="black" d="M1618,-122.01C1618,-138.05 1618,-159 1618,-159 1618,-159 1957.16,-159 1957.16,-159"/>
<polygon fill="black" stroke="black" points="1957.16,-162.5 1967.16,-159 1957.16,-155.5 1957.16,-162.5"/>
</g>
<!-- PersonalCalenderPageComponent -->
<g id="node14" class="node">
<title>PersonalCalenderPageComponent</title>
<polygon fill="#ffffb3" stroke="black" points="1528.78,-122 1321.22,-122 1321.22,-86 1528.78,-86 1528.78,-122"/>
<text text-anchor="middle" x="1425" y="-99.8" font-family="Times,serif" font-size="14.00">PersonalCalenderPageComponent</text>
</g>
<!-- PersonalCalenderPageComponent&#45;&gt;AppModule -->
<g id="edge14" class="edge">
<title>PersonalCalenderPageComponent&#45;&gt;AppModule</title>
<path fill="none" stroke="black" d="M1425,-122.03C1425,-139.06 1425,-162 1425,-162 1425,-162 1957,-162 1957,-162"/>
<polygon fill="black" stroke="black" points="1957,-165.5 1967,-162 1957,-158.5 1957,-165.5"/>
</g>
<!-- SearchPageComponent -->
<g id="node15" class="node">
<title>SearchPageComponent</title>
<polygon fill="#ffffb3" stroke="black" points="1303.13,-122 1156.87,-122 1156.87,-86 1303.13,-86 1303.13,-122"/>
<text text-anchor="middle" x="1230" y="-99.8" font-family="Times,serif" font-size="14.00">SearchPageComponent</text>
</g>
<!-- SearchPageComponent&#45;&gt;AppModule -->
<g id="edge15" class="edge">
<title>SearchPageComponent&#45;&gt;AppModule</title>
<path fill="none" stroke="black" d="M1230,-122.27C1230,-140.56 1230,-166 1230,-166 1230,-166 1957.12,-166 1957.12,-166"/>
<polygon fill="black" stroke="black" points="1957.12,-169.5 1967.12,-166 1957.12,-162.5 1957.12,-169.5"/>
</g>
<!-- WatchlistPageComponent -->
<g id="node16" class="node">
<title>WatchlistPageComponent</title>
<polygon fill="#ffffb3" stroke="black" points="1139.2,-122 976.8,-122 976.8,-86 1139.2,-86 1139.2,-122"/>
<text text-anchor="middle" x="1058" y="-99.8" font-family="Times,serif" font-size="14.00">WatchlistPageComponent</text>
</g>
<!-- WatchlistPageComponent&#45;&gt;AppModule -->
<g id="edge16" class="edge">
<title>WatchlistPageComponent&#45;&gt;AppModule</title>
<path fill="none" stroke="black" d="M1058,-122.11C1058,-141.34 1058,-169 1058,-169 1058,-169 1957.22,-169 1957.22,-169"/>
<polygon fill="black" stroke="black" points="1957.22,-172.5 1967.22,-169 1957.22,-165.5 1957.22,-172.5"/>
</g>
<!-- AppComponent  -->
<g id="node22" class="node">
<title>AppComponent </title>
<polygon fill="#80b1d3" stroke="black" points="2063.44,-252 1954.56,-252 1954.56,-216 2063.44,-216 2063.44,-252"/>
<text text-anchor="middle" x="2009" y="-229.8" font-family="Times,serif" font-size="14.00">AppComponent </text>
</g>
<!-- AppModule&#45;&gt;AppComponent  -->
<g id="edge21" class="edge">
<title>AppModule&#45;&gt;AppComponent </title>
<path fill="none" stroke="black" stroke-dasharray="1,5" d="M2009,-187.11C2009,-187.11 2009,-205.99 2009,-205.99"/>
<polygon fill="black" stroke="black" points="2005.5,-205.99 2009,-215.99 2012.5,-205.99 2005.5,-205.99"/>
</g>
<!-- AppRoutingModule -->
<g id="node18" class="node">
<title>AppRoutingModule</title>
<polygon fill="#8dd3c7" stroke="black" points="953.27,-122 950.27,-126 929.27,-126 926.27,-122 824.73,-122 824.73,-86 953.27,-86 953.27,-122"/>
<text text-anchor="middle" x="889" y="-99.8" font-family="Times,serif" font-size="14.00">AppRoutingModule</text>
</g>
<!-- AppRoutingModule&#45;&gt;AppModule -->
<g id="edge17" class="edge">
<title>AppRoutingModule&#45;&gt;AppModule</title>
<path fill="none" stroke="black" d="M889,-122.13C889,-142.57 889,-173 889,-173 889,-173 1957.14,-173 1957.14,-173"/>
<polygon fill="black" stroke="black" points="1957.14,-176.5 1967.14,-173 1957.14,-169.5 1957.14,-176.5"/>
</g>
<!-- provideAuth(() =&gt; getAuth()) -->
<g id="node19" class="node">
<title>provideAuth(() =&gt; getAuth())</title>
<polygon fill="#8dd3c7" stroke="black" points="806.12,-122 803.12,-126 782.12,-126 779.12,-122 623.88,-122 623.88,-86 806.12,-86 806.12,-122"/>
<text text-anchor="middle" x="715" y="-99.8" font-family="Times,serif" font-size="14.00">provideAuth(() =&gt; getAuth())</text>
</g>
<!-- provideAuth(() =&gt; getAuth())&#45;&gt;AppModule -->
<g id="edge18" class="edge">
<title>provideAuth(() =&gt; getAuth())&#45;&gt;AppModule</title>
<path fill="none" stroke="black" d="M715,-122.04C715,-143.66 715,-177 715,-177 715,-177 1957.05,-177 1957.05,-177"/>
<polygon fill="black" stroke="black" points="1957.05,-180.5 1967.05,-177 1957.05,-173.5 1957.05,-180.5"/>
</g>
<!-- provideFirebaseApp(() =&gt; initializeApp(firebaseConfig)) -->
<g id="node20" class="node">
<title>provideFirebaseApp(() =&gt; initializeApp(firebaseConfig))</title>
<polygon fill="#8dd3c7" stroke="black" points="605.83,-122 602.83,-126 581.83,-126 578.83,-122 268.17,-122 268.17,-86 605.83,-86 605.83,-122"/>
<text text-anchor="middle" x="437" y="-99.8" font-family="Times,serif" font-size="14.00">provideFirebaseApp(() =&gt; initializeApp(firebaseConfig))</text>
</g>
<!-- provideFirebaseApp(() =&gt; initializeApp(firebaseConfig))&#45;&gt;AppModule -->
<g id="edge19" class="edge">
<title>provideFirebaseApp(() =&gt; initializeApp(firebaseConfig))&#45;&gt;AppModule</title>
<path fill="none" stroke="black" d="M437,-122.01C437,-144.49 437,-180 437,-180 437,-180 1956.95,-180 1956.95,-180"/>
<polygon fill="black" stroke="black" points="1956.95,-183.5 1966.95,-180 1956.95,-176.5 1956.95,-183.5"/>
</g>
<!-- provideFirestore(() =&gt; getFirestore()) -->
<g id="node21" class="node">
<title>provideFirestore(() =&gt; getFirestore())</title>
<polygon fill="#8dd3c7" stroke="black" points="250.14,-122 247.14,-126 226.14,-126 223.14,-122 23.86,-122 23.86,-86 250.14,-86 250.14,-122"/>
<text text-anchor="middle" x="137" y="-99.8" font-family="Times,serif" font-size="14.00">provideFirestore(() =&gt; getFirestore())</text>
</g>
<!-- provideFirestore(() =&gt; getFirestore())&#45;&gt;AppModule -->
<g id="edge20" class="edge">
<title>provideFirestore(() =&gt; getFirestore())&#45;&gt;AppModule</title>
<path fill="none" stroke="black" d="M137,-122.15C137,-145.76 137,-184 137,-184 137,-184 1957.28,-184 1957.28,-184"/>
<polygon fill="black" stroke="black" points="1957.28,-187.5 1967.28,-184 1957.28,-180.5 1957.28,-187.5"/>
</g>
</g>
</svg>
